<?xml version="1.0" encoding="UTF-8"?> <svg xmlns="http://www.w3.org/2000/svg" id="Layer_1" data-name="Layer 1" viewBox="0 0 175 50"><defs><style>.cls-1{fill:#ad1d43;}.cls-2{fill:#495966;}</style></defs><path class="cls-1" d="M29.17,10.05h-9V.68H50v9.37H40.47V49.32H29.17Z"></path><rect class="cls-2" x="5.11" y="13.76" width="11.29" height="35.55"></rect><rect class="cls-2" x="5.11" y="0.68" width="11.29" height="9.37"></rect><rect class="cls-2" x="53.68" y="13.76" width="11.3" height="35.55"></rect><rect class="cls-2" x="53.68" y="0.68" width="11.3" height="9.37"></rect><path class="cls-2" d="M84.79,5.34H81.1V15.73h-1V5.34H76.48l.16-.79h8.15Z"></path><path class="cls-2" d="M85.93,11.66c0,2.36,1,3.57,2.79,3.57a5.9,5.9,0,0,0,2.66-.65l.27.47A6.25,6.25,0,0,1,88.5,16.1c-2.22,0-3.53-1.51-3.53-4.25,0-2.94,1.82-4.19,3.64-4.19A2.59,2.59,0,0,1,91.22,9.1a5.44,5.44,0,0,1,.48,2.45ZM88.4,8.35c-1.11,0-2.29.62-2.44,2.71l4.71-.24C90.57,9.45,90,8.35,88.4,8.35Z"></path><path class="cls-2" d="M96.36,8.35c-2,0-2.63,1.11-2.63,3.34,0,2.38,1.06,3.36,2.72,3.36a5,5,0,0,0,2.19-.6l.27.47a5.35,5.35,0,0,1-2.75,1c-2.15,0-3.46-1.52-3.46-4.12,0-2.85,1.64-4.32,3.81-4.32a7.11,7.11,0,0,1,2.19.35l-.25.92A7.81,7.81,0,0,0,96.36,8.35Z"></path><path class="cls-2" d="M105.76,10.93a6.94,6.94,0,0,0-.12-1.77c-.16-.51-.54-.78-1.48-.78a4.78,4.78,0,0,0-2.36.7c-.28.24-.3.55-.3,1.41v5.24h-1V11.79c0-1,0-2.55-.11-4.07l.85-.07a8.67,8.67,0,0,1,.19,1,6.17,6.17,0,0,1,3.18-1.16c1.07,0,1.73.37,2,1.35a9.17,9.17,0,0,1,.11,2v4.93h-1Z"></path><path class="cls-2" d="M112.08,15.92c-2.23,0-3.45-1.38-3.45-4.18s1.54-4.26,3.8-4.26,3.41,1.25,3.41,4.16C115.84,14.38,114.44,15.92,112.08,15.92Zm.26-7.74c-1.68,0-2.7,1-2.7,3.31,0,2.7,1,3.73,2.6,3.73,1.76,0,2.57-1.11,2.57-3.35C114.81,10.23,114.62,8.18,112.34,8.18Z"></path><path class="cls-2" d="M117.8,15.73V3.91h1V15.73Z"></path><path class="cls-2" d="M124.18,15.92c-2.23,0-3.45-1.38-3.45-4.18s1.54-4.26,3.8-4.26,3.41,1.25,3.41,4.16C127.94,14.38,126.54,15.92,124.18,15.92Zm.26-7.74c-1.68,0-2.7,1-2.7,3.31,0,2.7,1,3.73,2.6,3.73,1.76,0,2.57-1.11,2.57-3.35C126.91,10.23,126.72,8.18,124.44,8.18Zm-1-1.76,1.82-2.52,1,.52-2.28,2.3Z"></path><path class="cls-2" d="M136.28,8.37l-1.48.06a2.38,2.38,0,0,1,.58,1.69,2.9,2.9,0,0,1-3.15,2.73,1.24,1.24,0,0,0-.63.12c-.51.31-.76.61-.76.84s.17.62,1.36.65a16.2,16.2,0,0,1,2.77.21,1.5,1.5,0,0,1,1.36,1.71c0,1.47-1.57,2.95-4,2.95-2,0-3.2-.91-3.2-2.13,0-.69.68-1.34,1.78-2-.81-.3-1-.82-1-1.18s.32-.7,1.33-1.43a2.36,2.36,0,0,1-1.56-2.36,2.79,2.79,0,0,1,2.94-2.8,4.42,4.42,0,0,1,1.35.23l2.37.08Zm-4.84,7.14c-1,.51-1.3,1.11-1.3,1.55,0,.86.92,1.54,2.55,1.54s2.61-.86,2.61-2a.94.94,0,0,0-.76-1,8.22,8.22,0,0,0-2.33-.23A1.72,1.72,0,0,0,131.44,15.51Zm-.84-5.45c0,1.36.7,2.07,1.87,2.07a1.74,1.74,0,0,0,1.93-1.88c0-1.33-.71-2.14-1.89-2.14A1.76,1.76,0,0,0,130.6,10.06Z"></path><path class="cls-2" d="M138.15,6.41c-.38,0-.65-.17-.65-.71a.64.64,0,0,1,.69-.73c.39,0,.63.17.63.71S138.57,6.41,138.15,6.41Zm-.47,9.32v-8h1v8.05Z"></path><path class="cls-2" d="M144.27,8.35c-2.05,0-2.63,1.11-2.63,3.34,0,2.38,1.06,3.36,2.72,3.36a5,5,0,0,0,2.19-.6l.27.47a5.35,5.35,0,0,1-2.74,1c-2.16,0-3.47-1.52-3.47-4.12,0-2.85,1.65-4.32,3.82-4.32a7.09,7.09,0,0,1,2.18.35l-.25.92A7.81,7.81,0,0,0,144.27,8.35Z"></path><path class="cls-2" d="M151.2,15.92c-2.23,0-3.45-1.38-3.45-4.18s1.54-4.26,3.8-4.26S155,8.73,155,11.64C155,14.38,153.56,15.92,151.2,15.92Zm.26-7.74c-1.68,0-2.69,1-2.69,3.31,0,2.7,1,3.73,2.59,3.73,1.76,0,2.57-1.11,2.57-3.35C153.93,10.23,153.74,8.18,151.46,8.18Z"></path><path class="cls-2" d="M86.57,41.22A6.24,6.24,0,0,1,86,44.39c-.62,1.11-2.3,1.71-4.2,1.71s-3.38-.5-4.06-1.78a7.07,7.07,0,0,1-.49-3.07V34.44h2.2v6.78a6.13,6.13,0,0,0,.28,2.2,2.3,2.3,0,0,0,2.31,1.18,2.68,2.68,0,0,0,2-.73c.42-.44.61-1.13.61-2.6V34.44h1.89Z"></path><path class="cls-2" d="M94.25,40.93a5.7,5.7,0,0,0-.1-1.46c-.13-.43-.46-.61-1.11-.61a3.19,3.19,0,0,0-1.75.55c-.19.21-.21.42-.21,1.16v5.29H89v-4c0-1.14,0-3-.15-4.17l1.93-.16A7.32,7.32,0,0,1,91,38.6a5.74,5.74,0,0,1,3.14-1.21c1,0,1.73.26,2,1.19a6.46,6.46,0,0,1,.18,2v5.26h-2.1Z"></path><path class="cls-2" d="M99.57,36.3c-.79,0-1.15-.35-1.15-1.1s.39-1.14,1.2-1.14a1,1,0,0,1,1.08,1.11A1,1,0,0,1,99.57,36.3Zm-1,9.56V37.58h2.1v8.28Z"></path><path class="cls-2" d="M107,45.86h-2.15l-3-8.2,2.24-.16c1.31,3.8,1.68,5,2,6.29.4-1.23.81-2.44,2.26-6.29l1.85.16Z"></path><path class="cls-2" d="M112.94,41.87c0,1.82.9,2.65,2.39,2.65a7.36,7.36,0,0,0,2.6-.55l.42,1.08a8.38,8.38,0,0,1-3.6,1c-2.56,0-3.87-1.55-3.87-4.27,0-3.18,2-4.43,4.09-4.43a3,3,0,0,1,2.91,1.47,5.51,5.51,0,0,1,.55,2.9Zm1.84-3.24c-.91,0-1.75.63-1.83,2.22l3.54-.28C116.43,39.21,115.86,38.63,114.78,38.63Z"></path><path class="cls-2" d="M125.06,39.2a4.32,4.32,0,0,0-.94-.12,2.18,2.18,0,0,0-1.57.6,2,2,0,0,0-.27,1.34v4.84h-2.1V41.43c0-.91,0-2.59-.16-3.77l2-.16a11.3,11.3,0,0,1,.25,1.31,3.07,3.07,0,0,1,2.34-1.37,3.94,3.94,0,0,1,.74.06Z"></path><path class="cls-2" d="M128.42,44.63c1,0,1.34-.36,1.34-.94,0-.43-.29-.71-1.18-1.06l-.87-.34c-1.28-.52-1.84-1.2-1.84-2.36,0-1.61,1.19-2.56,3.38-2.56a8.15,8.15,0,0,1,2.26.36l-.31,1.34a8.74,8.74,0,0,0-2.1-.31c-.94,0-1.21.34-1.21.84s.16.66,1,1l.89.36c1.47.58,2,1.21,2,2.41,0,1.6-1.23,2.7-3.46,2.7a7.75,7.75,0,0,1-2.85-.63l.44-1.38A6.57,6.57,0,0,0,128.42,44.63Z"></path><path class="cls-2" d="M134.36,36.3c-.8,0-1.15-.35-1.15-1.1a1,1,0,0,1,1.19-1.14,1,1,0,0,1,1.09,1.11A1,1,0,0,1,134.36,36.3Zm-1.06,9.56V37.58h2.11v8.28Z"></path><path class="cls-2" d="M140.21,46a2.49,2.49,0,0,1-1.62-.52c-.42-.39-.63-1-.63-2.31V38.92h-1.21V37.86l1.24-.31s0,0,.15-2.22h1.92v2.25H142v1.34h-1.91v4.3a1.61,1.61,0,0,0,.26,1.12,1.26,1.26,0,0,0,.86.26,6.13,6.13,0,0,0,.95-.1l.19,1.21A9.27,9.27,0,0,1,140.21,46Z"></path><path class="cls-2" d="M143.29,38.15a11.21,11.21,0,0,1,3.53-.75,3.24,3.24,0,0,1,2,.5c.55.44.76,1.09.76,2.56,0,.61,0,2.33,0,3.09a2.69,2.69,0,0,0,.81,1.89l-1.62.65a2.18,2.18,0,0,1-1-1.06,4.44,4.44,0,0,1-2.65,1,2.38,2.38,0,0,1-2.46-2.54,1.89,1.89,0,0,1,1.7-2,15,15,0,0,1,3.23-.43v-.7a1.56,1.56,0,0,0-.31-1.08c-.26-.29-.53-.36-1.11-.36a8.91,8.91,0,0,0-2.59.47Zm1.91,4.39a.89.89,0,0,0-.56.88,1.19,1.19,0,0,0,1.21,1.29,2.66,2.66,0,0,0,1.36-.35,1.13,1.13,0,0,0,.26-.23.89.89,0,0,0,.11-.53V42.14A8.84,8.84,0,0,0,145.2,42.54Z"></path><path class="cls-2" d="M156.74,39.2a4.23,4.23,0,0,0-.93-.12,2.16,2.16,0,0,0-1.57.6A2,2,0,0,0,154,41v4.84h-2.1V41.43c0-.91,0-2.59-.16-3.77l2-.16a13.31,13.31,0,0,1,.24,1.31,3.07,3.07,0,0,1,2.34-1.37,4.11,4.11,0,0,1,.75.06Z"></path><path class="cls-2" d="M159,36.3c-.79,0-1.14-.35-1.14-1.1s.38-1.14,1.19-1.14a1,1,0,0,1,1.08,1.11A1,1,0,0,1,159,36.3ZM158,45.86V37.58h2.1v8.28Z"></path><path class="cls-2" d="M165.7,46.07c-2.52,0-3.91-1.26-3.91-4.2s1.63-4.5,4.22-4.5,3.88,1.15,3.88,4.17S168.45,46.07,165.7,46.07Zm.23-7.42c-1.28,0-2.06.66-2.06,2.81,0,2.39.76,3.33,2,3.33s2-.71,2-2.89C167.8,40.12,167.51,38.65,165.93,38.65Z"></path><path class="cls-2" d="M79,31H77.88V19H79Z"></path><path class="cls-2" d="M87.66,25.81a7.34,7.34,0,0,0-.13-1.9c-.17-.55-.58-.83-1.58-.83a5.08,5.08,0,0,0-2.53.74c-.3.26-.32.6-.32,1.51V31h-1V26.72c0-1.08,0-2.73-.12-4.36l.91-.07a10.55,10.55,0,0,1,.21,1.07,6.55,6.55,0,0,1,3.41-1.23c1.13,0,1.85.39,2.1,1.44a9.62,9.62,0,0,1,.12,2.1V31h-1Z"></path><path class="cls-2" d="M93.89,31.08a2.34,2.34,0,0,1-1.65-.54,2.79,2.79,0,0,1-.49-2V23.13H90.36v-.58l1.39-.26s0-.11.17-2.32h.87v2.36H95.3v.8H92.79v5.44a2,2,0,0,0,.32,1.36,1.44,1.44,0,0,0,1,.3,6,6,0,0,0,1.2-.11l.19.64A6.13,6.13,0,0,1,93.89,31.08Z"></path><path class="cls-2" d="M97.11,26.4c0,2.53,1.09,3.82,3,3.82a6.28,6.28,0,0,0,2.85-.7l.28.51a6.75,6.75,0,0,1-3.37,1.12c-2.38,0-3.78-1.61-3.78-4.55,0-3.15,2-4.49,3.9-4.49a2.8,2.8,0,0,1,2.8,1.54,6,6,0,0,1,.51,2.63Zm2.65-3.55c-1.19,0-2.46.67-2.62,2.91l5-.26C102.08,24,101.42,22.85,99.76,22.85Z"></path><path class="cls-2" d="M109.58,23.3a5.31,5.31,0,0,0-.92-.09,2.63,2.63,0,0,0-1.85.87c-.2.32-.27.52-.27,1.44V31h-1V26.72c0-1.08,0-2.75-.16-4.36l1-.07c.09.4.19,1.09.21,1.26A3.59,3.59,0,0,1,109,22.16a6,6,0,0,1,.74.05Z"></path><path class="cls-2" d="M116.92,25.81a7.34,7.34,0,0,0-.13-1.9c-.17-.55-.58-.83-1.58-.83a5.08,5.08,0,0,0-2.53.74c-.3.26-.32.6-.32,1.51V31h-1V26.72c0-1.08,0-2.73-.12-4.36l.92-.07a8.23,8.23,0,0,1,.2,1.07,6.61,6.61,0,0,1,3.41-1.23c1.14,0,1.85.39,2.11,1.44a9.62,9.62,0,0,1,.12,2.1V31h-1Z"></path><path class="cls-2" d="M120.52,23a9.26,9.26,0,0,1,3.41-.83,2.47,2.47,0,0,1,1.71.49c.53.42.69,1.08.69,2.36,0,.79,0,2.91,0,3.76a1.76,1.76,0,0,0,.93,1.66l-.49.67A1.72,1.72,0,0,1,125.38,30a4.89,4.89,0,0,1-2.95,1.16,2.49,2.49,0,0,1-2.52-2.53c0-1.05.49-1.73,1.86-2a17.81,17.81,0,0,1,3.51-.4V25a2.47,2.47,0,0,0-.37-1.46,1.67,1.67,0,0,0-1.46-.49,8.82,8.82,0,0,0-2.7.58Zm1.15,4.39a1.1,1.1,0,0,0-.7,1.1,1.68,1.68,0,0,0,1.73,1.73,4,4,0,0,0,2.12-.59,1,1,0,0,0,.34-.31,1.12,1.12,0,0,0,.12-.66V26.79A11.72,11.72,0,0,0,121.67,27.4Z"></path><path class="cls-2" d="M132.34,23c-2.19,0-2.82,1.19-2.82,3.58s1.14,3.6,2.92,3.6a5.26,5.26,0,0,0,2.34-.65l.29.51a5.75,5.75,0,0,1-2.94,1.07c-2.3,0-3.71-1.63-3.71-4.41,0-3,1.76-4.63,4.09-4.63a7.69,7.69,0,0,1,2.34.37l-.27,1A8.15,8.15,0,0,0,132.34,23Z"></path><path class="cls-2" d="M137.19,21.05c-.41,0-.7-.18-.7-.76a.68.68,0,0,1,.73-.78c.43,0,.68.18.68.76S137.63,21.05,137.19,21.05Zm-.51,9.9V22.33h1V31Z"></path><path class="cls-2" d="M143.52,31.15c-2.4,0-3.7-1.48-3.7-4.48s1.64-4.56,4.07-4.56,3.65,1.34,3.65,4.46C147.54,29.5,146,31.15,143.52,31.15Zm.27-8.3c-1.8,0-2.89,1-2.89,3.55,0,2.9,1.09,4,2.78,4,1.89,0,2.75-1.18,2.75-3.59C146.43,25.06,146.23,22.85,143.79,22.85Z"></path><path class="cls-2" d="M155.37,25.81a7.34,7.34,0,0,0-.13-1.9c-.17-.55-.58-.83-1.58-.83a5.08,5.08,0,0,0-2.53.74c-.31.26-.32.6-.32,1.51V31h-1V26.72c0-1.08,0-2.73-.12-4.36l.92-.07a8.23,8.23,0,0,1,.2,1.07,6.61,6.61,0,0,1,3.41-1.23c1.14,0,1.85.39,2.11,1.44a9.62,9.62,0,0,1,.12,2.1V31h-1Z"></path><path class="cls-2" d="M159,23a9.26,9.26,0,0,1,3.41-.83,2.49,2.49,0,0,1,1.71.49c.52.42.69,1.08.69,2.36,0,.79,0,2.91,0,3.76a1.76,1.76,0,0,0,.93,1.66l-.49.67A1.72,1.72,0,0,1,163.83,30a4.89,4.89,0,0,1-3,1.16,2.49,2.49,0,0,1-2.52-2.53c0-1.05.49-1.73,1.86-2a17.81,17.81,0,0,1,3.51-.4V25a2.47,2.47,0,0,0-.37-1.46,1.67,1.67,0,0,0-1.46-.49,8.76,8.76,0,0,0-2.7.58Zm1.15,4.39a1.1,1.1,0,0,0-.7,1.1,1.68,1.68,0,0,0,1.73,1.73,4,4,0,0,0,2.12-.59,1,1,0,0,0,.34-.31,1.12,1.12,0,0,0,.12-.66V26.79A11.72,11.72,0,0,0,160.12,27.4Z"></path><path class="cls-2" d="M167.48,31V18.29h1V31Z"></path></svg> 